<svg xmlns="http://www.w3.org/2000/svg" xmlns:xlink="http://www.w3.org/1999/xlink" width="500" zoomAndPan="magnify" viewBox="0 0 375 374.999991" height="500" preserveAspectRatio="xMidYMid meet" version="1.2"><defs/><g id="654dc56185"><rect x="0" width="375" y="0" height="374.999991" style="fill:#ffffff;fill-opacity:1;stroke:none;"/><rect x="0" width="375" y="0" height="374.999991" style="fill:#1b1b1b;fill-opacity:1;stroke:none;"/><g style="fill:#f05a5a;fill-opacity:0.4;"><g transform="translate(31.183874, 240.796028)"><path style="stroke:none" d="M 52.3125 -104.609375 L 39.234375 -104.609375 L 39.234375 -91.53125 L 26.15625 -91.53125 L 26.15625 -65.375 L 65.375 -65.375 L 65.375 -91.53125 L 52.3125 -91.53125 Z M 65.375 0 L 65.375 -52.3125 L 26.15625 -52.3125 L 26.15625 0 L 0 0 L 0 -91.53125 L 13.078125 -91.53125 L 13.078125 -104.609375 L 26.15625 -104.609375 L 26.15625 -117.6875 L 39.234375 -117.6875 L 39.234375 -130.765625 L 52.3125 -130.765625 L 52.3125 -117.6875 L 65.375 -117.6875 L 65.375 -104.609375 L 78.453125 -104.609375 L 78.453125 -91.53125 L 91.53125 -91.53125 L 91.53125 0 Z M 65.375 0 "/></g><g transform="translate(148.870113, 240.796028)"><path style="stroke:none" d="M 65.375 -117.6875 L 39.234375 -117.6875 L 39.234375 -78.453125 L 65.375 -78.453125 Z M 39.234375 -13.078125 L 52.3125 -13.078125 L 52.3125 0 L 0 0 L 0 -13.078125 L 13.078125 -13.078125 L 13.078125 -117.6875 L 0 -117.6875 L 0 -130.765625 L 78.453125 -130.765625 L 78.453125 -117.6875 L 91.53125 -117.6875 L 91.53125 -78.453125 L 78.453125 -78.453125 L 78.453125 -65.375 L 39.234375 -65.375 Z M 39.234375 -13.078125 "/></g><g transform="translate(266.556351, 240.796028)"><path style="stroke:none" d="M 39.234375 -13.078125 L 65.375 -13.078125 L 65.375 -26.15625 L 78.453125 -26.15625 L 78.453125 -39.234375 L 91.53125 -39.234375 L 91.53125 0 L 0 0 L 0 -13.078125 L 13.078125 -13.078125 L 13.078125 -117.6875 L 0 -117.6875 L 0 -130.765625 L 52.3125 -130.765625 L 52.3125 -117.6875 L 39.234375 -117.6875 Z M 39.234375 -13.078125 "/></g></g><g style="fill:#f05a5a;fill-opacity:1;"><g transform="translate(21.937503, 231.549656)"><path style="stroke:none" d="M 52.3125 -104.609375 L 39.234375 -104.609375 L 39.234375 -91.53125 L 26.15625 -91.53125 L 26.15625 -65.375 L 65.375 -65.375 L 65.375 -91.53125 L 52.3125 -91.53125 Z M 65.375 0 L 65.375 -52.3125 L 26.15625 -52.3125 L 26.15625 0 L 0 0 L 0 -91.53125 L 13.078125 -91.53125 L 13.078125 -104.609375 L 26.15625 -104.609375 L 26.15625 -117.6875 L 39.234375 -117.6875 L 39.234375 -130.765625 L 52.3125 -130.765625 L 52.3125 -117.6875 L 65.375 -117.6875 L 65.375 -104.609375 L 78.453125 -104.609375 L 78.453125 -91.53125 L 91.53125 -91.53125 L 91.53125 0 Z M 65.375 0 "/></g><g transform="translate(139.623741, 231.549656)"><path style="stroke:none" d="M 65.375 -117.6875 L 39.234375 -117.6875 L 39.234375 -78.453125 L 65.375 -78.453125 Z M 39.234375 -13.078125 L 52.3125 -13.078125 L 52.3125 0 L 0 0 L 0 -13.078125 L 13.078125 -13.078125 L 13.078125 -117.6875 L 0 -117.6875 L 0 -130.765625 L 78.453125 -130.765625 L 78.453125 -117.6875 L 91.53125 -117.6875 L 91.53125 -78.453125 L 78.453125 -78.453125 L 78.453125 -65.375 L 39.234375 -65.375 Z M 39.234375 -13.078125 "/></g><g transform="translate(257.309979, 231.549656)"><path style="stroke:none" d="M 39.234375 -13.078125 L 65.375 -13.078125 L 65.375 -26.15625 L 78.453125 -26.15625 L 78.453125 -39.234375 L 91.53125 -39.234375 L 91.53125 0 L 0 0 L 0 -13.078125 L 13.078125 -13.078125 L 13.078125 -117.6875 L 0 -117.6875 L 0 -130.765625 L 52.3125 -130.765625 L 52.3125 -117.6875 L 39.234375 -117.6875 Z M 39.234375 -13.078125 "/></g></g></g></svg>